<?xml version="1.0" encoding="utf-8"?>
<!-- Generator: Adobe Illustrator 18.0.0, SVG Export Plug-In . SVG Version: 6.00 Build 0)  -->
<!DOCTYPE svg PUBLIC "-//W3C//DTD SVG 1.0//EN" "http://www.w3.org/TR/2001/REC-SVG-20010904/DTD/svg10.dtd">
<svg version="1.0" id="Layer_1" xmlns="http://www.w3.org/2000/svg" xmlns:xlink="http://www.w3.org/1999/xlink" x="0px" y="0px"
	 viewBox="0 0 103.6 70.4" enable-background="new 0 0 103.6 70.4" xml:space="preserve">
<g>
	<rect y="17.2" fill="#884B2E" width="103.6" height="53.2"/>
	<g>
		<polygon opacity="0.2" fill="#FFFFFF" points="98,34.6 103.6,34.6 103.6,70.4 0,70.4 5.7,64.5 33,64.5 35.2,70.4 37.5,64.5 
			66.1,64.5 68.3,70.4 70.6,64.5 98,64.5 		"/>
	</g>
	<polygon opacity="0.3" fill="#FFFFFF" points="66.1,64.5 66.1,36.5 68.3,36.5 68.3,70.4 	"/>
	<polygon opacity="0.3" fill="#FFFFFF" points="33,64.5 33,36.5 35.2,36.5 35.2,70.4 	"/>
	<g opacity="0.2">
		<polygon fill="#12100B" points="68.3,70.4 68.3,36.5 70.6,36.5 70.6,64.5 		"/>
		<polygon fill="#12100B" points="35.2,70.4 35.2,36.5 37.5,36.5 37.5,64.5 		"/>
		<polygon fill="#12100B" points="0,70.4 0,33.6 5.7,33.6 5.7,64.5 		"/>
	</g>
</g>
<g>
	<g>
		<g>
			<polygon fill="#80B5E3" points="5.6,52.4 0,48 0,0 103.6,0 103.6,48.4 98,52.4 88.5,50.6 79.1,56.8 75.3,52.4 60.9,55 53.2,50.1 
				47.8,53.8 35,49.1 27.5,51.2 15.6,54.7 			"/>
		</g>
	</g>
</g>
<path fill="#FDC300" d="M42.3,19.6C42.3,19.6,42.4,19.6,42.3,19.6C42.4,19.6,42.3,19.6,42.3,19.6z"/>
<g>
	<g>
		<path fill="#242C5C" d="M81.6,30c1.6,0.3,4.9-4.1,6-5.3c1.2-1.3,2-0.7,1.3,0.7c-0.6,1.4-1.9,3.7-1.1,4.1c1.7,0.7,3.4-1.9,4-3
			c1.9-3.5,1.9,0.2,1.6,2c-0.8,4-0.7,14.2-16.6,13c-2.6-0.2-6.9-2.9-4.7-5.5c2.2-2.7,10.2-3.5,12.8-1.3c0.8,0.7,0.5,1.8-0.7,1.2
			c-0.9-0.5-2.4-1.1-5-0.7c-1.2,0.2-3.2,1.5-1.6,2.7c1.6,1.2,7.8,0.6,9.7-0.6c3.7-2.2,3.2-6.2,3.5-6.7c0,0,0,0,0,0c0,0,0,0,0,0
			c-0.7,0.8-1.7,1.9-4.1,1.6c-1.7-0.2-1.4-1.8-1.3-2.7c-1.5,1.5-2.7,2.1-4.2,2.1c-0.8,0-1.7-0.2-2.4-0.9c-4.4,2-7,0-5.5-4.2
			c1.1-3.1,2.6-5.9,3.3-7.1c1.8-3,4.1-1.5,3.1,0c-1.2,1.9-3.5,4.7-4.5,7.2c-1.5,3.8,1.8,3.7,3,3.2c0-0.1-0.1-0.2-0.1-0.3
			c-1.2-3.3,2.5-8.1,6.1-5.4c1,1.5-1.1,3.9-3.5,5.5c-0.1,0.1-0.2,0.1-0.3,0.2C80.8,29.8,81.2,29.9,81.6,30z M79.8,28.8
			c1.6-1.1,2.9-2.6,2.2-3.1C80.9,24.8,79.1,27.2,79.8,28.8z"/>
		<path fill="#242C5C" d="M16.7,35.5c2.6,1.7,6.6-6.4,4.5-7.5c-3.2-1.8-7.5,5.1-7.7,8.4c-0.2,2.7,1.9,5.1,5,3.9
			c3.8-1.5,5.7-3.9,7.2-6.6c1-1.6,4.8-9.7,3.4-10.8c-1.2-0.9-3.4,0.9-2.9,5.2c0.2,1.7,1,4.4,1.4,7.2c0.6-1.5,1.9-3.7,3.3-4.2
			c4.4-1.4-0.1,6.7,1.8,6c1.3-0.5,1.7-8.2,5.5-8.9c3.4-0.6,3.2,6.1,0.1,8.1c-2.9,1.9-4-1.4-3.3-4.2c0.3-1.2,2.2-2.2,1.5-1
			c-0.8,1.4-0.2,3.6,1.1,3.1c2.2-0.9,2.7-5.8,0.4-4.5c-2.5,1.3-2.2,6.1-4.2,8.2c-0.7,0.7-1.9,0.9-2.2,0.6c-1.1-0.9,1.1-6-0.5-5.5
			c-1.3,0.4-1.9,3.7-2.5,5.3c-0.1,0.3-0.2,1.9-0.2,1.9l-1.6,0.7c-0.1-3.4-0.7-6.9-1.6-11.6c-0.9-4.9,1.7-9.6,4.8-10
			c4.7-0.7,3,4,1.3,7C28.3,31.5,25,39.9,20.8,44c-5.8,5.5-12.6,0.5-11.2-6.6C10.5,33,15.1,24.6,21,26.2c4.9,1.4,2.5,6.9,0.2,9.5
			c-1.2,1.3-3.5,2.3-5,0.9C15.6,36.1,15.9,35,16.7,35.5z"/>
		<path fill="#242C5C" d="M46.2,28.9c0-1-0.5-1.2-1.3-0.9c-1.1,0.3-2,1.8-1.8,3.2c0.1,0.8,0.9,1.5,2.3,1.1c2.6-0.7,3.5-5.3,5.6-6.8
			c4.1-2.9,6,3.9,2.7,7c-2.1,2-5.1,0.9-5-2.5c0.1-2.4,1.7-5.1,4.3-5.3c2.6-0.3,2.7,2.2,5,2.4c2.4,0.2,3.9-4.9,3.6-7.1
			c-0.3-2.4-1.8-2.1-3.2,1.2c-0.9,2.1-1.3,8.7,1.3,9.1c2.2,0.3,4.3-7.5,8.6-7.2c2.8,0.2,3,5.9,0.7,7.5c-1.1,1.1-2.5,1.1-3.5,1
			c-2.7-0.2-2.9-4.2-0.9-6.5c1.1-1.2,2.2-0.8,1,0.3c-1.4,1.3-0.9,3.3,0.3,3.5c3.4,0.5,3.8-4.9,1.3-4.4c-0.9,0.2-2.1,1.1-3.6,3.5
			c-0.9,1.4-2.5,4.1-3.7,4.4c-1.2,0.3-2.2-0.1-2.9-2.3c-1-3.1-0.5-6.8,0.3-9.7c2.2-7.9,8.6-5.2,7.2,0c-0.6,2.4-2.7,6.5-5,7.7
			c-2.7,1.3-3.1-1.2-5.3-1.9c-3.2-1.1-5.9,4.4-2.2,4.3c2.6-0.4,3.4-5.3,0.4-4.1c-2.9,1.1-3.3,5.3-5.4,7.5c-2.9,3-6.1,0.6-5.3-3.7
			c0.2-1.3,1.8-3.3,3.4-3.6c1.7-0.3,2.7,0.8,2.3,2.5C47,29.6,46.2,29.7,46.2,28.9z"/>
		<path fill="#242C5C" d="M72,24.8c-1.4,1.4-1.6,3.8-0.3,4.8c0.5,0.5,1.9,0.4,2.9-0.2l0.4,0.9c-3.4,2.7-6.3,0-5.4-4
			c0.1-0.4,0.7-1.6,1.3-2.3C71.8,23,72.9,23.9,72,24.8z"/>
		<path fill="#242C5C" d="M73.3,21.3c-1.6-0.8-1.8,0.4-0.9,0.9c4.1,2.4,7.3,1.2,8.2,0.3c0.9-0.8,0.2-1.3-0.6-1.1
			C77.5,22.2,75.3,22.3,73.3,21.3z"/>
	</g>
</g>
<polygon opacity="0.2" fill="#FFFFFF" points="103.6,0 98,0 98,52.4 103.6,48.4 "/>
<polygon opacity="0.2" fill="#12100B" points="5.6,52.4 5.6,0 0,0 0,48 "/>
</svg>
